<?xml version="1.0" encoding="utf-8"?>
<!-- Generator: Adobe Illustrator 26.3.1, SVG Export Plug-In . SVG Version: 6.00 Build 0)  -->
<svg version="1.1" id="Ebene_1" xmlns="http://www.w3.org/2000/svg" xmlns:xlink="http://www.w3.org/1999/xlink" x="0px" y="0px"
	 width="103.7px" height="98.6px" viewBox="0 0 103.7 98.6" style="enable-background:new 0 0 103.7 98.6;" xml:space="preserve">
<style type="text/css">
	.st0{fill:#FFFFFF;}
</style>
<path class="st0" d="M15.6,72.3L15.6,72.3l36.2,26.3l12.5-9.1L20.4,57.6L15.6,72.3z M37.2,65.3L37.2,65.3l14.6,10.6l12.5-9.1v0
	L42,50.6L37.2,65.3L37.2,65.3z M55,78.2l12.5,9.1l36.2-26.3l-4.8-14.7L55,78.2L55,78.2z M54.9,55.5l12.5,9.1L82,53.9v0l-4.8-14.7
	C77.3,39.2,54.9,55.5,54.9,55.5z M27.2,36.8L21.6,54L34.1,63l8.5-26.2H27.2z M13.8,18.4L0,61l12.5,9.1l16.7-51.6L13.8,18.4
	L13.8,18.4z M33.1,18.4l-4.8,14.7l27.6,0l-4.8-14.7L33.1,18.4L33.1,18.4z M55,18.4l8.6,26.2l12.5-9.1l-5.6-17.2
	C70.5,18.4,55,18.4,55,18.4z M19.8,0.1L15,14.8l54.3,0L64.5,0L19.8,0.1z M83.8,0L68.4,0l16.8,51.6l12.5-9.1L83.8,0L83.8,0z"/>
</svg>
