<svg width="512" height="512" viewBox="0 0 512 512" fill="none" xmlns="http://www.w3.org/2000/svg">
<g id="universal_pfp">
<rect width="512" height="512" fill="black"/>
<g id="Group 58">
<path id="Subtract" d="M185.47 162.123L265.767 381.508C269.629 392.059 278.089 398.223 287.324 400H226.606C216.529 400 207.524 393.704 204.065 384.239L121.641 158.732C112.102 132.634 126.423 105 154.21 105H207.004C197.971 108.226 191.067 115.059 186.948 123.309C181.296 134.631 180.605 148.832 185.47 162.123Z" fill="url(#paint0_linear_862_335)"/>
<g id="Group 57">
<mask id="mask0_862_335" style="mask-type:alpha" maskUnits="userSpaceOnUse" x="101" y="115" width="242" height="292">
<rect id="Rectangle 73" x="101" y="115" width="242" height="292" fill="url(#paint1_linear_862_335)"/>
</mask>
<g mask="url(#mask0_862_335)">
<g id="Subtract_2" filter="url(#filter0_f_862_335)">
<path d="M185.47 162.123L265.767 381.508C269.629 392.059 278.089 398.223 287.324 400H226.606C216.529 400 207.524 393.704 204.065 384.239L121.641 158.732C112.102 132.634 126.423 105 154.21 105H207.004C197.971 108.226 191.067 115.059 186.948 123.309C181.296 134.631 180.605 148.832 185.47 162.123Z" fill="url(#paint2_linear_862_335)"/>
</g>
</g>
</g>
<g id="Polygon 17">
<path d="M308.965 377.383C303.52 392.259 282.481 392.259 277.036 377.383L196.739 157.999C189.096 137.118 199.554 115 218.789 115L367.212 115C386.447 115 396.905 137.118 389.262 157.999L308.965 377.383Z" fill="url(#paint3_linear_862_335)"/>
<path d="M308.965 377.383C303.52 392.259 282.481 392.259 277.036 377.383L196.739 157.999C189.096 137.118 199.554 115 218.789 115L367.212 115C386.447 115 396.905 137.118 389.262 157.999L308.965 377.383Z" fill="url(#paint4_radial_862_335)"/>
<path d="M308.965 377.383C303.52 392.259 282.481 392.259 277.036 377.383L196.739 157.999C189.096 137.118 199.554 115 218.789 115L367.212 115C386.447 115 396.905 137.118 389.262 157.999L308.965 377.383Z" fill="url(#paint5_radial_862_335)"/>
<path d="M308.965 377.383C303.52 392.259 282.481 392.259 277.036 377.383L196.739 157.999C189.096 137.118 199.554 115 218.789 115L367.212 115C386.447 115 396.905 137.118 389.262 157.999L308.965 377.383Z" fill="url(#paint6_radial_862_335)"/>
<path d="M308.965 377.383C303.52 392.259 282.481 392.259 277.036 377.383L196.739 157.999C189.096 137.118 199.554 115 218.789 115L367.212 115C386.447 115 396.905 137.118 389.262 157.999L308.965 377.383Z" fill="url(#paint7_linear_862_335)" fill-opacity="0.8"/>
</g>
<path id="Polygon 19 (Stroke)" fill-rule="evenodd" clip-rule="evenodd" d="M274.219 378.414L193.921 159.03C189.839 147.877 190.54 136.265 195 127.329C199.488 118.339 207.859 112 218.789 112L367.212 112C378.142 112 386.512 118.339 391 127.329C395.461 136.264 396.162 147.877 392.079 159.03L311.782 378.414C305.376 395.915 280.624 395.915 274.219 378.414ZM277.036 377.383C282.481 392.259 303.52 392.259 308.965 377.383L389.262 157.999C396.905 137.118 386.447 115 367.212 115L218.789 115C199.554 115 189.096 137.118 196.739 157.999L277.036 377.383Z" fill="url(#paint8_linear_862_335)"/>
<g id="Polygon 20" filter="url(#filter1_f_862_335)">
<path d="M308.965 377.383C303.52 392.259 282.481 392.259 277.036 377.383L196.739 157.999C189.096 137.118 199.554 115 218.789 115L367.212 115C386.447 115 396.905 137.118 389.262 157.999L308.965 377.383Z" fill="url(#paint9_radial_862_335)"/>
</g>
</g>
</g>
<defs>
<filter id="filter0_f_862_335" x="89.6914" y="76" width="226.632" height="353" filterUnits="userSpaceOnUse" color-interpolation-filters="sRGB">
<feFlood flood-opacity="0" result="BackgroundImageFix"/>
<feBlend mode="normal" in="SourceGraphic" in2="BackgroundImageFix" result="shape"/>
<feGaussianBlur stdDeviation="14.5" result="effect1_foregroundBlur_862_335"/>
</filter>
<filter id="filter1_f_862_335" x="165.223" y="86" width="255.556" height="331.54" filterUnits="userSpaceOnUse" color-interpolation-filters="sRGB">
<feFlood flood-opacity="0" result="BackgroundImageFix"/>
<feBlend mode="normal" in="SourceGraphic" in2="BackgroundImageFix" result="shape"/>
<feGaussianBlur stdDeviation="14.5" result="effect1_foregroundBlur_862_335"/>
</filter>
<linearGradient id="paint0_linear_862_335" x1="203.008" y1="105" x2="203.008" y2="400" gradientUnits="userSpaceOnUse">
<stop offset="0.0214678" stop-color="#C8C8C8" stop-opacity="0"/>
<stop offset="0.0256676" stop-color="#C8C8C8"/>
<stop offset="0.0693822" stop-color="#C9C9C9" stop-opacity="0.927973"/>
<stop offset="0.111865" stop-color="#CBCBCB" stop-opacity="0.42"/>
<stop offset="0.142556" stop-color="#CBCBCB" stop-opacity="0.2"/>
<stop offset="0.171366" stop-color="#1FADD5"/>
<stop offset="0.185193" stop-color="#B2ECFD" stop-opacity="0.938703"/>
<stop offset="0.959939" stop-color="white"/>
<stop offset="0.969541" stop-color="#D9D9D9" stop-opacity="0"/>
</linearGradient>
<linearGradient id="paint1_linear_862_335" x1="222" y1="115" x2="222" y2="407" gradientUnits="userSpaceOnUse">
<stop offset="0.173679" stop-color="#D9D9D9" stop-opacity="0"/>
<stop offset="0.811109" stop-color="#D9D9D9"/>
</linearGradient>
<linearGradient id="paint2_linear_862_335" x1="203.008" y1="105" x2="203.008" y2="400" gradientUnits="userSpaceOnUse">
<stop offset="0.0214678" stop-color="#C8C8C8" stop-opacity="0"/>
<stop offset="0.0256676" stop-color="#C8C8C8"/>
<stop offset="0.0693822" stop-color="#C9C9C9" stop-opacity="0.927973"/>
<stop offset="0.111865" stop-color="#CBCBCB" stop-opacity="0.42"/>
<stop offset="0.142556" stop-color="#CBCBCB" stop-opacity="0.2"/>
<stop offset="0.171366" stop-color="#1FADD5"/>
<stop offset="0.185193" stop-color="#B2ECFD" stop-opacity="0.938703"/>
<stop offset="0.959939" stop-color="white"/>
<stop offset="0.969541" stop-color="#D9D9D9" stop-opacity="0"/>
</linearGradient>
<linearGradient id="paint3_linear_862_335" x1="311.5" y1="214" x2="205.5" y2="122.5" gradientUnits="userSpaceOnUse">
<stop stop-color="#E7CC38"/>
<stop offset="1" stop-color="#E7CC38" stop-opacity="0"/>
</linearGradient>
<radialGradient id="paint4_radial_862_335" cx="0" cy="0" r="1" gradientUnits="userSpaceOnUse" gradientTransform="translate(248 115) rotate(75.277) scale(141.651 141.651)">
<stop stop-color="#5DAF3D"/>
<stop offset="1" stop-color="#C7E606" stop-opacity="0"/>
</radialGradient>
<radialGradient id="paint5_radial_862_335" cx="0" cy="0" r="1" gradientUnits="userSpaceOnUse" gradientTransform="translate(235 260.5) rotate(70.0452) scale(518.638 159.958)">
<stop offset="0.0505218" stop-color="#D55401"/>
<stop offset="0.651601" stop-color="#E7CC38" stop-opacity="0"/>
</radialGradient>
<radialGradient id="paint6_radial_862_335" cx="0" cy="0" r="1" gradientUnits="userSpaceOnUse" gradientTransform="translate(358 115) rotate(99.6503) scale(125.273 125.273)">
<stop stop-color="#62FAD2"/>
<stop offset="1" stop-color="#62FA83" stop-opacity="0"/>
</radialGradient>
<linearGradient id="paint7_linear_862_335" x1="356.5" y1="266.5" x2="251" y2="228.5" gradientUnits="userSpaceOnUse">
<stop stop-color="white"/>
<stop offset="0.46419" stop-color="white" stop-opacity="0.41"/>
<stop offset="1" stop-color="white" stop-opacity="0"/>
</linearGradient>
<linearGradient id="paint8_linear_862_335" x1="335" y1="265.5" x2="299.5" y2="252" gradientUnits="userSpaceOnUse">
<stop stop-color="white"/>
<stop offset="1" stop-color="white" stop-opacity="0"/>
</linearGradient>
<radialGradient id="paint9_radial_862_335" cx="0" cy="0" r="1" gradientUnits="userSpaceOnUse" gradientTransform="translate(259 222) rotate(105.771) scale(180.287 115.882)">
<stop offset="0.890927" stop-color="white" stop-opacity="0"/>
<stop offset="1" stop-color="white"/>
</radialGradient>
</defs>
</svg>
