<svg role="img" aria-label="Megapot Logo" width="108" height="20" viewBox="0 0 108 20" xmlns="http://www.w3.org/2000/svg"><g clip-path="url(#clip0_4720_59663)"><path d="M33.345 4.1544L34.4181 0.439453H24.1039L18.5781 19.6027H28.8921L29.9652 15.8875H24.6538L25.9011 11.5578H30.3004L31.3601 7.8293H26.9608L28.0337 4.1544H33.345Z"></path><path d="M46.8255 2.82467C46.4277 1.95627 45.7502 1.28592 44.7935 0.813643C43.8365 0.341609 42.6475 0.105469 41.2258 0.105469C39.9115 0.105469 38.7781 0.323806 37.8258 0.760234C36.8736 1.19691 36.0978 1.79826 35.4987 2.5643C34.8997 3.33058 34.4527 4.23484 34.1576 5.27707L32.1859 12.2394C31.7209 13.8254 31.6474 15.195 31.9646 16.3485C32.2817 17.5025 32.9637 18.3887 34.01 19.0081C35.056 19.6273 36.4329 19.9368 38.141 19.9368C39.196 19.9368 40.1998 19.812 41.1521 19.5627C42.1043 19.3135 42.8935 18.9925 43.5194 18.6006L46.175 9.28627H39.1873L38.1681 12.841H40.3006L39.4221 15.8737C39.3367 15.9074 39.2496 15.9368 39.1605 15.9615C38.919 16.028 38.6642 16.0617 38.3959 16.0617C37.9844 16.0617 37.6469 15.9682 37.3834 15.781C37.1195 15.5938 36.9496 15.3312 36.8736 14.9925C36.7977 14.654 36.8267 14.2442 36.9607 13.7631L39.3347 5.51791C39.4419 5.1616 39.5628 4.86537 39.6968 4.62923C39.8308 4.39309 39.9939 4.21728 40.1864 4.10131C40.3785 3.98559 40.6088 3.92749 40.8771 3.92749C41.3332 3.92749 41.6459 4.07683 41.8159 4.37504C41.9857 4.67374 42.0125 5.07233 41.8963 5.57107L41.4402 7.16125H46.7111L47.0732 5.86507C47.3057 4.70687 47.2228 3.69357 46.825 2.82467H46.8255Z"></path><path d="M52.7702 0.439453L44.0254 19.6027H49.2561L50.8493 15.6872H53.567L52.931 19.6027H58.0277L60.1736 0.439453H52.7699H52.7702ZM54.1939 11.8919H52.4001L55.37 4.6121L54.1937 11.8919H54.1939Z"></path><path d="M74.8623 3.57975C74.661 2.58203 74.1736 1.80907 73.4003 1.26137C72.6267 0.713178 71.5829 0.439453 70.2686 0.439453H64.6488L59.123 19.6027H64.1259L66.0842 12.8006H67.1707C68.5565 12.8006 69.7301 12.6092 70.6915 12.226C71.6524 11.8429 72.4461 11.2572 73.0722 10.4686C73.6978 9.68034 74.1808 8.66704 74.5208 7.42847L74.6146 7.06771C74.9811 5.74038 75.0638 4.57773 74.8628 3.57975H74.8623ZM69.8661 6.23912L69.5978 7.16118C69.3831 7.90941 69.1037 8.45538 68.7595 8.79834C68.415 9.1413 67.9524 9.31265 67.3712 9.31265H67.0896L68.6453 3.91381H68.9136C69.2623 3.91381 69.5325 3.99393 69.7251 4.1544C69.9172 4.31488 70.0269 4.56858 70.0537 4.91623C70.0805 5.26365 70.018 5.70477 69.8658 6.23912H69.8661Z"></path><path d="M96.2648 0.439453L95.1113 4.46176H98.4777L94.1055 19.6027H99.1081L103.467 4.46176H106.834L108.001 0.439453H96.2648Z"></path><path d="M15.6923 0.439453L10.5748 12.1666L12.2321 0.439453H5.52576L0 19.6027H4.43952L7.86278 7.73385L6.37078 19.6027H10.5822L15.9804 7.50686L12.4867 19.6027H16.9664L22.4924 0.439453H15.6923Z"></path><path d="M85.2006 0C79.6577 0 75.1641 4.47703 75.1641 10C75.1641 15.523 79.6574 20 85.2006 20C90.7437 20 95.2371 15.523 95.2371 10C95.2371 4.47703 90.7437 0 85.2006 0ZM88.1094 18.5728C86.5357 14.4847 81.55 12.9239 77.9123 15.3805C81.3281 12.626 81.2775 7.41927 77.8083 4.73147C81.4932 7.11711 86.4474 5.45992 87.9411 1.34217C86.8025 5.57119 89.9153 9.75372 94.3074 9.89664C89.919 10.1246 86.8884 14.3667 88.1091 18.5728H88.1094Z"></path></g><defs><clipPath id="clip0_4720_59663"><rect width="108" height="20" fill="white"></rect></clipPath></defs></svg>
