<svg xmlns="http://www.w3.org/2000/svg" viewBox="0 0 32 32" style="image-rendering:pixelated">
  <rect width="32" height="32" fill="#FF0000"/>
  <!-- Face -->
  <rect x="12" y="8" width="8" height="1" fill="#FFF"/>
  <rect x="10" y="9" width="12" height="1" fill="#FFF"/>
  <rect x="9" y="10" width="14" height="1" fill="#FFF"/>
  <rect x="8" y="11" width="16" height="1" fill="#FFF"/>
  <rect x="7" y="12" width="18" height="1" fill="#FFF"/>
  <rect x="7" y="13" width="18" height="1" fill="#FFF"/>
  <rect x="7" y="14" width="18" height="1" fill="#FFF"/>
  <rect x="7" y="15" width="18" height="1" fill="#FFF"/>
  <rect x="7" y="16" width="18" height="1" fill="#FFF"/>
  <rect x="8" y="17" width="16" height="1" fill="#FFF"/>
  <rect x="8" y="18" width="16" height="1" fill="#FFF"/>
  <rect x="9" y="19" width="14" height="1" fill="#FFF"/>
  <rect x="10" y="20" width="12" height="1" fill="#FFF"/>
  <rect x="12" y="21" width="8" height="1" fill="#FFF"/>
  <!-- Eyes -->
  <rect x="10" y="13" width="3" height="3" fill="#000"/>
  <rect x="19" y="13" width="3" height="3" fill="#000"/>
  <!-- Eye highlights -->
  <rect x="10" y="13" width="1" height="1" fill="#FFF"/>
  <rect x="19" y="13" width="1" height="1" fill="#FFF"/>
  <!-- Beak -->
  <rect x="15" y="18" width="2" height="1" fill="#FF8800"/>
  <!-- Glitch artifacts -->
  <rect x="2" y="3" width="1" height="1" fill="#0FF"/>
  <rect x="28" y="8" width="1" height="1" fill="#0FF"/>
  <rect x="5" y="26" width="1" height="1" fill="#0FF"/>
  <rect x="14" y="29" width="1" height="1" fill="#0FF"/>
  <rect x="1" y="14" width="1" height="1" fill="#0FF"/>
  <rect x="24" y="3" width="1" height="1" fill="#0FF"/>
  <rect x="27" y="5" width="1" height="1" fill="#F0F"/>
  <rect x="3" y="11" width="1" height="1" fill="#F0F"/>
  <rect x="29" y="23" width="1" height="1" fill="#F0F"/>
  <rect x="7" y="28" width="1" height="1" fill="#F0F"/>
  <rect x="18" y="2" width="1" height="1" fill="#F0F"/>
  <rect x="30" y="16" width="1" height="1" fill="#F0F"/>
  <rect x="6" y="7" width="1" height="1" fill="#0F0"/>
  <rect x="26" y="14" width="1" height="1" fill="#0F0"/>
  <rect x="1" y="23" width="1" height="1" fill="#0F0"/>
  <rect x="30" y="10" width="1" height="1" fill="#0F0"/>
  <rect x="16" y="1" width="1" height="1" fill="#0F0"/>
  <rect x="10" y="28" width="1" height="1" fill="#0F0"/>
  <rect x="4" y="19" width="1" height="1" fill="#00F"/>
  <rect x="24" y="29" width="1" height="1" fill="#00F"/>
  <rect x="8" y="1" width="1" height="1" fill="#00F"/>
  <rect x="29" y="12" width="1" height="1" fill="#00F"/>
  <rect x="0" y="9" width="1" height="1" fill="#FFF"/>
  <rect x="31" y="20" width="1" height="1" fill="#FFF"/>
  <rect x="25" y="1" width="1" height="1" fill="#FFF"/>
  <rect x="3" y="30" width="1" height="1" fill="#FFF"/>
</svg>
